<svg width="16" height="16" viewBox="0 0 16 16" fill="none" xmlns="http://www.w3.org/2000/svg">
<path d="M14.2929 15.7071C14.6834 16.0976 15.3166 16.0976 15.7071 15.7071C16.0976 15.3166 16.0976 14.6834 15.7071 14.2929L14.2929 15.7071ZM10.163 6.08148C10.163 8.33562 8.33562 10.163 6.08148 10.163V12.163C9.44019 12.163 12.163 9.44019 12.163 6.08148H10.163ZM6.08148 10.163C3.82734 10.163 2 8.33562 2 6.08148H0C0 9.44019 2.72277 12.163 6.08148 12.163V10.163ZM2 6.08148C2 3.82734 3.82734 2 6.08148 2V0C2.72277 0 0 2.72277 0 6.08148H2ZM6.08148 2C8.33562 2 10.163 3.82734 10.163 6.08148H12.163C12.163 2.72277 9.44019 0 6.08148 0V2ZM9.00401 10.4182L14.2929 15.7071L15.7071 14.2929L10.4182 9.00401L9.00401 10.4182Z" fill="#017AFE"/>
</svg>
