<svg width="14" height="13" viewBox="0 0 14 13" fill="none" xmlns="http://www.w3.org/2000/svg">
<path d="M8.85874 5.12925L8.52184 5.07137C8.5137 5.12191 8.51632 5.17367 8.5295 5.22306C8.54268 5.27245 8.56612 5.31828 8.59818 5.35738C8.63024 5.39647 8.67015 5.42788 8.71514 5.44944C8.76014 5.47099 8.80914 5.48217 8.85874 5.48219V5.12925ZM1.34168 5.12925V4.77631C1.25106 4.77631 1.16416 4.81349 1.10008 4.87968C1.036 4.94587 1 5.03565 1 5.12925H1.34168ZM2.70842 12.541H10.4715V11.8351H3.68105H2.70842V12.541ZM11.2915 4.77631H8.85874V5.48219H11.2915V4.77631ZM9.19564 5.18713L9.74643 1.77419L9.07263 1.65772L8.52184 5.07137L9.19564 5.18713ZM8.73573 0.541016H8.59017V1.2469H8.73573V0.541016ZM6.59952 1.64149L4.88017 4.30478L5.44873 4.69655L7.1674 2.03254L6.59952 1.64149ZM4.02732 4.77631H1.34168V5.48219H1.68337H3.68105H3.85419H4.02732V4.77631ZM1 5.12925V10.7763H1.68337V5.48219V5.12925H1ZM12.1471 11.1222L12.9671 6.8869L12.2974 6.74855L11.4774 10.9838L12.1471 11.1222ZM4.88017 4.30478C4.78657 4.44982 4.65975 4.56874 4.51098 4.651C4.3622 4.73325 4.19607 4.7763 4.02732 4.77631V5.48219C4.15895 5.48219 4.28963 5.46649 4.41684 5.43572C4.56141 5.40075 4.70148 5.34634 4.83338 5.27344C5.08134 5.13639 5.29271 4.93823 5.44873 4.69655L4.88017 4.30478ZM9.74643 1.77419C9.77095 1.62252 9.76318 1.46716 9.72369 1.3189C9.68419 1.17064 9.6139 1.03305 9.51771 0.915693C9.42153 0.798334 9.30175 0.704023 9.16671 0.639319C9.03166 0.574615 8.8846 0.541069 8.73573 0.541016V1.2469C8.78539 1.24682 8.83446 1.25792 8.87954 1.27943C8.92462 1.30094 8.96462 1.33234 8.99675 1.37145C9.02889 1.41055 9.05238 1.45642 9.06561 1.50586C9.07883 1.5553 9.08146 1.60712 9.07332 1.65772L9.74643 1.77419ZM11.2915 5.48219C11.4432 5.48218 11.5929 5.51693 11.73 5.58393C11.8671 5.65094 11.9881 5.74852 12.0843 5.86966C12.1804 5.99079 12.2493 6.13246 12.2861 6.28444C12.3228 6.43642 12.3272 6.59493 12.2974 6.74855L12.9671 6.8869C13.0167 6.63098 13.0099 6.36689 12.9488 6.11368C12.8876 5.86046 12.7728 5.62441 12.6126 5.42254C12.4525 5.22067 12.251 5.058 12.0227 4.94626C11.7944 4.83451 11.5449 4.77647 11.2922 4.77631L11.2915 5.48219ZM10.4715 12.541C10.8665 12.5411 11.2494 12.3998 11.5549 12.1411C11.8604 11.8824 12.0697 11.5223 12.1471 11.1222L11.4774 10.9838C11.4309 11.224 11.3053 11.4401 11.1219 11.5953C10.9384 11.7506 10.7086 11.8353 10.4715 11.8351V12.541ZM8.58949 0.541016C8.19561 0.540955 7.80782 0.641373 7.46054 0.833352C7.11327 1.02533 6.81727 1.30293 6.59884 1.64149L7.1674 2.03254C7.32342 1.79086 7.53479 1.5927 7.78275 1.45565C8.03071 1.3186 8.30758 1.24689 8.58881 1.2469L8.58949 0.541016ZM2.70842 11.8351C2.43656 11.8351 2.17583 11.7236 1.9836 11.525C1.79136 11.3264 1.68337 11.0571 1.68337 10.7763H1C1 11.0081 1.04419 11.2375 1.13005 11.4516C1.2159 11.6657 1.34174 11.8603 1.50038 12.0241C1.65903 12.188 1.84736 12.318 2.05464 12.4067C2.26191 12.4954 2.48407 12.541 2.70842 12.541V11.8351Z" fill="url(#paint0_linear_2858_5437)"/>
<path d="M3.68105 11.8351H4.41684V5.43572C4.28963 5.46649 4.15895 5.48219 4.02732 5.48219H3.85419H3.68105V11.8351Z" fill="url(#paint1_linear_2858_5437)"/>
<path d="M1.68337 5.48219V10.7763C1.68337 11.0571 1.79136 11.3264 1.9836 11.525C2.17583 11.7236 2.43656 11.8351 2.70842 11.8351H3.68105V5.48219H1.68337Z" fill="url(#paint2_linear_2858_5437)"/>
<path d="M8.52184 5.07137L8.85874 5.12925V5.48219M8.52184 5.07137C8.5137 5.12191 8.51632 5.17367 8.5295 5.22306C8.54268 5.27245 8.56612 5.31828 8.59818 5.35738C8.63024 5.39647 8.67015 5.42788 8.71514 5.44944C8.76014 5.47099 8.80914 5.48217 8.85874 5.48219M8.52184 5.07137L9.07263 1.65772L9.74643 1.77419M8.52184 5.07137L9.19564 5.18713L9.74643 1.77419M8.85874 5.48219V4.77631H11.2915V5.48219M8.85874 5.48219H11.2915M1.34168 4.77631V5.12925H1M1.34168 4.77631C1.25106 4.77631 1.16416 4.81349 1.10008 4.87968C1.036 4.94587 1 5.03565 1 5.12925M1.34168 4.77631H4.02732M1.34168 4.77631V5.48219H1.68337M1 5.12925V10.7763M1 5.12925H1.68337V5.48219M12.6323 6.81772L12.9671 6.8869M12.9671 6.8869L12.1471 11.1222M12.9671 6.8869L12.2974 6.74854M12.9671 6.8869C13.0167 6.63098 13.0099 6.36689 12.9488 6.11368C12.8876 5.86046 12.7728 5.62441 12.6126 5.42254C12.4525 5.22067 12.251 5.058 12.0227 4.94626C11.7944 4.83451 11.5449 4.77647 11.2922 4.77631L11.2915 5.48219M2.70842 12.541H10.4715M2.70842 12.541V11.8351M2.70842 12.541C2.48407 12.541 2.26191 12.4954 2.05464 12.4067C1.84736 12.318 1.65903 12.188 1.50039 12.0241C1.34174 11.8603 1.2159 11.6657 1.13005 11.4516C1.04419 11.2375 1 11.0081 1 10.7763M10.4715 12.541V11.8351M10.4715 12.541C10.8665 12.5411 11.2494 12.3998 11.5549 12.1411C11.8604 11.8824 12.0697 11.5223 12.1471 11.1222M10.4715 11.8351C10.7086 11.8353 10.9384 11.7506 11.1219 11.5953C11.3053 11.4401 11.4309 11.224 11.4774 10.9838M10.4715 11.8351H3.68105M2.70842 11.8351C2.43656 11.8351 2.17583 11.7236 1.9836 11.525C1.79136 11.3264 1.68337 11.0571 1.68337 10.7763M2.70842 11.8351H3.68105M11.2915 5.48219C11.4432 5.48218 11.593 5.51693 11.73 5.58393C11.8671 5.65094 11.9881 5.74852 12.0843 5.86966C12.1804 5.99079 12.2493 6.13246 12.2861 6.28444C12.3228 6.43642 12.3272 6.59493 12.2974 6.74854M9.74643 1.77419C9.77095 1.62252 9.76318 1.46716 9.72369 1.3189C9.68419 1.17064 9.6139 1.03305 9.51771 0.915693C9.42153 0.798334 9.30175 0.704023 9.16671 0.639319C9.03166 0.574615 8.8846 0.541069 8.73573 0.541016M9.74643 1.77419L9.07332 1.65772C9.08146 1.60712 9.07883 1.5553 9.06561 1.50586C9.05238 1.45642 9.02889 1.41055 8.99675 1.37145C8.96462 1.33234 8.92462 1.30094 8.87954 1.27943C8.83446 1.25792 8.78539 1.24682 8.73573 1.2469M8.73573 0.541016H8.59017V1.2469H8.73573M8.73573 0.541016V1.2469M4.88017 4.30478L6.59952 1.64149L7.1674 2.03255M4.88017 4.30478L5.44873 4.69655M4.88017 4.30478C4.78657 4.44982 4.65975 4.56874 4.51098 4.651C4.3622 4.73325 4.19607 4.7763 4.02732 4.77631M5.44873 4.69655L7.1674 2.03255M5.44873 4.69655C5.29271 4.93823 5.08134 5.13639 4.83338 5.27344C4.70148 5.34634 4.56141 5.40075 4.41684 5.43572M7.1674 2.03255L6.59884 1.64149C6.81727 1.30293 7.11327 1.02533 7.46054 0.833352C7.80782 0.641373 8.19561 0.540955 8.58949 0.541016L8.58881 1.2469C8.30758 1.24689 8.03071 1.3186 7.78275 1.45565C7.53479 1.5927 7.32342 1.79086 7.1674 2.03255ZM4.02732 4.77631V5.48219M4.02732 5.48219C4.15895 5.48219 4.28963 5.46649 4.41684 5.43572M4.02732 5.48219H3.85419H3.68105M1 10.7763H1.68337M1.68337 10.7763V5.48219M12.1471 11.1222L11.4774 10.9838M12.2974 6.74854L11.4774 10.9838M4.41684 11.8351L3.68105 11.846V11.8351M4.41684 11.8351H3.68105M4.41684 11.8351V5.43572M3.68105 11.8351V5.48219M3.68105 5.48219H1.68337" stroke="url(#paint3_linear_2858_5437)" stroke-width="0.5"/>
<defs>
<linearGradient id="paint0_linear_2858_5437" x1="6.64" y1="12.553" x2="11.5757" y2="-35.1317" gradientUnits="userSpaceOnUse">
<stop stop-color="#007AFF"/>
<stop offset="0.9999" stop-color="#0057B6"/>
<stop offset="1" stop-color="#004999"/>
</linearGradient>
<linearGradient id="paint1_linear_2858_5437" x1="6.64" y1="12.553" x2="11.5757" y2="-35.1317" gradientUnits="userSpaceOnUse">
<stop stop-color="#007AFF"/>
<stop offset="0.9999" stop-color="#0057B6"/>
<stop offset="1" stop-color="#004999"/>
</linearGradient>
<linearGradient id="paint2_linear_2858_5437" x1="6.64" y1="12.553" x2="11.5757" y2="-35.1317" gradientUnits="userSpaceOnUse">
<stop stop-color="#007AFF"/>
<stop offset="0.9999" stop-color="#0057B6"/>
<stop offset="1" stop-color="#004999"/>
</linearGradient>
<linearGradient id="paint3_linear_2858_5437" x1="6.64" y1="12.553" x2="11.5757" y2="-35.1317" gradientUnits="userSpaceOnUse">
<stop stop-color="#007AFF"/>
<stop offset="0.9999" stop-color="#0057B6"/>
<stop offset="1" stop-color="#004999"/>
</linearGradient>
</defs>
</svg>
