<svg width="14" height="14" viewBox="0 0 14 14" fill="none" xmlns="http://www.w3.org/2000/svg">
<path d="M8.85874 5.58824L8.52184 5.53035C8.5137 5.58089 8.51632 5.63265 8.5295 5.68204C8.54268 5.73143 8.56612 5.77727 8.59818 5.81636C8.63024 5.85545 8.67015 5.88687 8.71514 5.90842C8.76014 5.92998 8.80914 5.94115 8.85874 5.94118V5.58824ZM1.34168 5.58824V5.23529C1.25106 5.23529 1.16416 5.27248 1.10008 5.33867C1.036 5.40486 1 5.49463 1 5.58824H1.34168ZM2.70842 13H10.4715V12.2941H3.68105H2.70842V13ZM11.2915 5.23529H8.85874V5.94118H11.2915V5.23529ZM9.19564 5.64612L9.74643 2.23318L9.07263 2.11671L8.52184 5.53035L9.19564 5.64612ZM8.73573 1H8.59017V1.70588H8.73573V1ZM6.59952 2.10047L4.88017 4.76376L5.44873 5.15553L7.1674 2.49153L6.59952 2.10047ZM4.02732 5.23529H1.34168V5.94118H1.68337H3.68105H3.85419H4.02732V5.23529ZM1 5.58824V11.2353H1.68337V5.94118V5.58824H1ZM12.1471 11.5812L12.9671 7.34588L12.2974 7.20753L11.4774 11.4428L12.1471 11.5812ZM4.88017 4.76376C4.78657 4.9088 4.65975 5.02772 4.51098 5.10998C4.3622 5.19224 4.19607 5.23528 4.02732 5.23529V5.94118C4.15895 5.94118 4.28963 5.92547 4.41684 5.8947C4.56141 5.85974 4.70148 5.80533 4.83338 5.73242C5.08134 5.59537 5.29271 5.39721 5.44873 5.15553L4.88017 4.76376ZM9.74643 2.23318C9.77095 2.08151 9.76318 1.92614 9.72369 1.77789C9.68419 1.62963 9.6139 1.49204 9.51771 1.37468C9.42153 1.25732 9.30175 1.16301 9.16671 1.0983C9.03166 1.0336 8.8846 1.00005 8.73573 1V1.70588C8.78539 1.7058 8.83446 1.71691 8.87954 1.73841C8.92462 1.75992 8.96462 1.79132 8.99675 1.83043C9.02889 1.86953 9.05238 1.9154 9.06561 1.96484C9.07883 2.01428 9.08146 2.06611 9.07332 2.11671L9.74643 2.23318ZM11.2915 5.94118C11.4432 5.94117 11.5929 5.97592 11.73 6.04292C11.8671 6.10992 11.9881 6.20751 12.0843 6.32864C12.1804 6.44978 12.2493 6.59144 12.2861 6.74343C12.3228 6.89541 12.3272 7.05392 12.2974 7.20753L12.9671 7.34588C13.0167 7.08996 13.0099 6.82588 12.9488 6.57266C12.8876 6.31944 12.7728 6.0834 12.6126 5.88153C12.4525 5.67966 12.251 5.51699 12.0227 5.40524C11.7944 5.29349 11.5449 5.23545 11.2922 5.23529L11.2915 5.94118ZM10.4715 13C10.8665 13.0001 11.2494 12.8587 11.5549 12.6001C11.8604 12.3414 12.0697 11.9813 12.1471 11.5812L11.4774 11.4428C11.4309 11.683 11.3053 11.8991 11.1219 12.0543C10.9384 12.2096 10.7086 12.2943 10.4715 12.2941V13ZM8.58949 1C8.19561 0.999939 7.80782 1.10036 7.46054 1.29234C7.11327 1.48432 6.81727 1.76191 6.59884 2.10047L7.1674 2.49153C7.32342 2.24985 7.53479 2.05169 7.78275 1.91464C8.03071 1.77758 8.30758 1.70588 8.58881 1.70588L8.58949 1ZM2.70842 12.2941C2.43656 12.2941 2.17583 12.1826 1.9836 11.984C1.79136 11.7854 1.68337 11.5161 1.68337 11.2353H1C1 11.467 1.04419 11.6965 1.13005 11.9106C1.2159 12.1247 1.34174 12.3193 1.50038 12.4831C1.65903 12.647 1.84736 12.777 2.05464 12.8657C2.26191 12.9544 2.48407 13 2.70842 13V12.2941Z" fill="url(#paint0_linear_2858_5327)"/>
<path d="M3.68105 12.2941H4.41684V5.8947C4.28963 5.92547 4.15895 5.94118 4.02732 5.94118H3.85419H3.68105V12.2941Z" fill="url(#paint1_linear_2858_5327)"/>
<path d="M1.68337 5.94118V11.2353C1.68337 11.5161 1.79136 11.7854 1.9836 11.984C2.17583 12.1826 2.43656 12.2941 2.70842 12.2941H3.68105V5.94118H1.68337Z" fill="url(#paint2_linear_2858_5327)"/>
<path d="M8.52184 5.53035L8.85874 5.58824V5.94118M8.52184 5.53035C8.5137 5.58089 8.51632 5.63265 8.5295 5.68204C8.54268 5.73143 8.56612 5.77727 8.59818 5.81636C8.63024 5.85545 8.67015 5.88687 8.71514 5.90842C8.76014 5.92998 8.80914 5.94115 8.85874 5.94118M8.52184 5.53035L9.07263 2.11671L9.74643 2.23318M8.52184 5.53035L9.19564 5.64612L9.74643 2.23318M8.85874 5.94118V5.23529H11.2915V5.94118M8.85874 5.94118H11.2915M1.34168 5.23529V5.58824H1M1.34168 5.23529C1.25106 5.23529 1.16416 5.27248 1.10008 5.33867C1.036 5.40486 1 5.49463 1 5.58824M1.34168 5.23529H4.02732M1.34168 5.23529V5.94118H1.68337M1 5.58824V11.2353M1 5.58824H1.68337V5.94118M12.6323 7.27671L12.9671 7.34588M12.9671 7.34588L12.1471 11.5812M12.9671 7.34588L12.2974 7.20753M12.9671 7.34588C13.0167 7.08996 13.0099 6.82588 12.9488 6.57266C12.8876 6.31944 12.7728 6.0834 12.6126 5.88153C12.4525 5.67966 12.251 5.51699 12.0227 5.40524C11.7944 5.29349 11.5449 5.23545 11.2922 5.23529L11.2915 5.94118M2.70842 13H10.4715M2.70842 13V12.2941M2.70842 13C2.48407 13 2.26191 12.9544 2.05464 12.8657C1.84736 12.777 1.65903 12.647 1.50039 12.4831C1.34174 12.3193 1.2159 12.1247 1.13005 11.9106C1.04419 11.6965 1 11.467 1 11.2353M10.4715 13V12.2941M10.4715 13C10.8665 13.0001 11.2494 12.8587 11.5549 12.6001C11.8604 12.3414 12.0697 11.9813 12.1471 11.5812M10.4715 12.2941C10.7086 12.2943 10.9384 12.2096 11.1219 12.0543C11.3053 11.8991 11.4309 11.683 11.4774 11.4428M10.4715 12.2941H3.68105M2.70842 12.2941C2.43656 12.2941 2.17583 12.1826 1.9836 11.984C1.79136 11.7854 1.68337 11.5161 1.68337 11.2353M2.70842 12.2941H3.68105M11.2915 5.94118C11.4432 5.94117 11.593 5.97592 11.73 6.04292C11.8671 6.10992 11.9881 6.20751 12.0843 6.32864C12.1804 6.44978 12.2493 6.59144 12.2861 6.74343C12.3228 6.89541 12.3272 7.05392 12.2974 7.20753M9.74643 2.23318C9.77095 2.08151 9.76318 1.92614 9.72369 1.77789C9.68419 1.62963 9.6139 1.49204 9.51771 1.37468C9.42153 1.25732 9.30175 1.16301 9.16671 1.0983C9.03166 1.0336 8.8846 1.00005 8.73573 1M9.74643 2.23318L9.07332 2.11671C9.08146 2.06611 9.07883 2.01428 9.06561 1.96484C9.05238 1.9154 9.02889 1.86953 8.99675 1.83043C8.96462 1.79132 8.92462 1.75992 8.87954 1.73841C8.83446 1.71691 8.78539 1.7058 8.73573 1.70588M8.73573 1H8.59017V1.70588H8.73573M8.73573 1V1.70588M4.88017 4.76376L6.59952 2.10047L7.1674 2.49153M4.88017 4.76376L5.44873 5.15553M4.88017 4.76376C4.78657 4.9088 4.65975 5.02772 4.51098 5.10998C4.3622 5.19224 4.19607 5.23528 4.02732 5.23529M5.44873 5.15553L7.1674 2.49153M5.44873 5.15553C5.29271 5.39721 5.08134 5.59537 4.83338 5.73242C4.70148 5.80533 4.56141 5.85974 4.41684 5.8947M7.1674 2.49153L6.59884 2.10047C6.81727 1.76191 7.11327 1.48432 7.46054 1.29234C7.80782 1.10036 8.19561 0.999939 8.58949 1L8.58881 1.70588C8.30758 1.70588 8.03071 1.77758 7.78275 1.91464C7.53479 2.05169 7.32342 2.24985 7.1674 2.49153ZM4.02732 5.23529V5.94118M4.02732 5.94118C4.15895 5.94118 4.28963 5.92547 4.41684 5.8947M4.02732 5.94118H3.85419H3.68105M1 11.2353H1.68337M1.68337 11.2353V5.94118M12.1471 11.5812L11.4774 11.4428M12.2974 7.20753L11.4774 11.4428M4.41684 12.2941L3.68105 12.305V12.2941M4.41684 12.2941H3.68105M4.41684 12.2941V5.8947M3.68105 12.2941V5.94118M3.68105 5.94118H1.68337" stroke="url(#paint3_linear_2858_5327)" stroke-width="0.5"/>
<defs>
<linearGradient id="paint0_linear_2858_5327" x1="6.64" y1="13.012" x2="11.5757" y2="-34.6727" gradientUnits="userSpaceOnUse">
<stop stop-color="#007AFF"/>
<stop offset="0.9999" stop-color="#0057B6"/>
<stop offset="1" stop-color="#004999"/>
</linearGradient>
<linearGradient id="paint1_linear_2858_5327" x1="6.64" y1="13.012" x2="11.5757" y2="-34.6727" gradientUnits="userSpaceOnUse">
<stop stop-color="#007AFF"/>
<stop offset="0.9999" stop-color="#0057B6"/>
<stop offset="1" stop-color="#004999"/>
</linearGradient>
<linearGradient id="paint2_linear_2858_5327" x1="6.64" y1="13.012" x2="11.5757" y2="-34.6727" gradientUnits="userSpaceOnUse">
<stop stop-color="#007AFF"/>
<stop offset="0.9999" stop-color="#0057B6"/>
<stop offset="1" stop-color="#004999"/>
</linearGradient>
<linearGradient id="paint3_linear_2858_5327" x1="6.64" y1="13.012" x2="11.5757" y2="-34.6727" gradientUnits="userSpaceOnUse">
<stop stop-color="#007AFF"/>
<stop offset="0.9999" stop-color="#0057B6"/>
<stop offset="1" stop-color="#004999"/>
</linearGradient>
</defs>
</svg>
