<svg width="54" height="59" viewBox="0 0 54 59" fill="none" xmlns="http://www.w3.org/2000/svg">
<rect y="27" width="54" height="23" fill="#3A679B"/>
<path d="M54 27L-7.62939e-06 27L-6.87835e-06 18.4091L27 1.45428e-06L54 18.4091L54 27Z" fill="#5B8FCB"/>
<rect x="6" y="18" width="42" height="36" rx="4" fill="#FBFBFB"/>
<path d="M0.00927734 27C0.00311279 27.1016 0 27.2039 0 27.3069V53.3069C0 56.0684 2.23859 58.3069 5 58.3069H49C51.7614 58.3069 54 56.0684 54 53.3069V27.3069C54 27.2039 53.9969 27.1016 53.9907 27C53.8941 28.4885 53.0485 29.8356 51.7332 30.5662L29.4282 42.9579C27.9181 43.7969 26.0819 43.7969 24.5718 42.9579L2.26675 30.5662C0.951477 29.8356 0.105865 28.4885 0.00927734 27Z" fill="#4A88D0"/>
</svg>
