<svg width="86" height="40" viewBox="0 0 86 40" fill="none" xmlns="http://www.w3.org/2000/svg">
<path d="M1.02734 24.9165H44.9041V36.5956H1.02734V24.9165ZM25.275 29.2545H20.6564V32.2577H25.275V29.2545Z" fill="#003C82"/>
<path d="M1.02734 12.457H44.8981C44.9421 14.1873 44.7444 15.6712 44.3053 16.9088C43.9101 18.1464 43.1416 19.1858 41.9998 20.0268C40.9019 20.8679 39.321 21.5528 37.257 22.0815C35.2369 22.5982 32.6459 22.9947 29.4841 23.2711C26.3661 23.5474 22.5895 23.7517 18.1541 23.8839C13.7187 24.004 8.5148 24.0881 2.5424 24.1362L1.02734 18.7832C5.28707 18.7472 8.80025 18.6871 11.5669 18.603C14.3335 18.5069 16.5073 18.4047 18.0882 18.2966C19.6691 18.1885 20.8329 18.0743 21.5794 17.9542C22.326 17.834 22.7871 17.7199 22.9627 17.6117C23.1823 17.5036 23.2921 17.4075 23.2921 17.3233H1.02734V12.457Z" fill="#003C82"/>
<path d="M29.2499 4.77354C31.1302 4.81128 33.0504 4.88046 35.0107 4.98109C36.971 5.08172 38.8113 5.22637 40.5315 5.41505C42.2518 5.59115 43.712 5.81127 44.9122 6.07542L39.2714 11.6791C37.5911 11.4276 35.7508 11.2075 33.7505 11.0188C31.7502 10.8301 29.77 10.6729 27.8097 10.5471C25.8894 10.4087 24.1291 10.3144 22.5289 10.2641L24.7492 7.69805C22.4289 8.72948 19.5084 9.56596 15.9879 10.2075C12.5074 10.8364 8.56684 11.2578 4.1662 11.4716L0.265625 5.94335C1.90587 5.76725 3.44609 5.57857 4.8863 5.37731C6.32651 5.16348 7.5867 4.86159 8.66686 4.47166C9.78702 4.08173 10.6672 3.53456 11.3072 2.83016C11.9473 2.12577 12.2874 1.18238 12.3274 0H31.1702C31.2502 0.893075 31.1102 1.73583 30.7501 2.52828C30.4301 3.32073 29.93 4.06915 29.2499 4.77354Z" fill="#003C82"/>
<path d="M75.5226 36.8342L73.1193 28.6471H73.0296L72.9579 36.8342H69.6758L70.5008 24.2046H74.1775L76.9932 32.9704H77.0829L79.9166 24.2046H83.5933L84.4183 36.8342H81.1362L81.0645 28.6471H80.9748L78.5715 36.8342H75.5226Z" fill="#003C82"/>
<path d="M62.9854 34.4002C63.5593 34.4002 64.0555 34.2357 64.474 33.9066C64.9044 33.5662 65.1197 33.0385 65.1197 32.3236V24.2046H68.3121V32.5789C68.3121 33.3279 68.1806 33.9917 67.9175 34.5704C67.6545 35.1378 67.2898 35.62 66.8235 36.0172C66.3572 36.403 65.7952 36.698 65.1376 36.9023C64.4919 37.1066 63.7745 37.2087 62.9854 37.2087C62.1963 37.2087 61.4789 37.1066 60.8332 36.9023C60.1876 36.698 59.6316 36.403 59.1653 36.0172C58.7109 35.62 58.3582 35.1378 58.1071 34.5704C57.856 33.9917 57.7305 33.3279 57.7305 32.5789V24.2046H60.9229V32.3236C60.9229 33.0385 61.1202 33.5662 61.5147 33.9066C61.9213 34.2357 62.4115 34.4002 62.9854 34.4002Z" fill="#003C82"/>
<path d="M53.2846 36.9025C52.639 37.0727 51.9096 37.1578 51.0966 37.1578C50.2835 37.1578 49.4824 37.05 48.6933 36.8344C48.4661 36.7664 48.2091 36.6699 47.9221 36.5451C47.6471 36.4089 47.3661 36.2557 47.0792 36.0855C46.7922 35.9153 46.5112 35.7337 46.2362 35.5408C45.9732 35.3366 45.746 35.1267 45.5547 34.9111L47.671 32.7324C48.5678 33.3338 49.3629 33.7593 50.0564 34.0089C50.7618 34.2586 51.3716 34.321 51.8857 34.1962C52.1129 34.1508 52.2922 34.06 52.4238 33.9238C52.5673 33.7763 52.6569 33.6118 52.6928 33.4302C52.7287 33.26 52.7048 33.0898 52.6211 32.9196C52.5374 32.738 52.3999 32.5848 52.2086 32.46C51.9694 32.3125 51.7303 32.1877 51.4912 32.0856C51.264 31.9721 51.0129 31.8586 50.7379 31.7451C50.4629 31.643 50.164 31.5239 49.8411 31.3877C49.5183 31.2402 49.1596 31.0643 48.765 30.86C47.6172 30.2586 46.8879 29.5438 46.577 28.7154C46.2661 27.887 46.308 27.1041 46.7025 26.3665C47.0971 25.5608 47.7009 24.9481 48.514 24.5282C49.339 24.1084 50.2656 23.8984 51.2939 23.8984C52.2982 23.8984 53.2129 24.0686 54.0379 24.4091C54.8749 24.7495 55.5863 25.2147 56.1722 25.8048L54.0917 28.0005C53.6493 27.6487 53.1352 27.3594 52.5493 27.1324C51.9754 26.8941 51.4732 26.775 51.0428 26.775C50.7917 26.775 50.5645 26.8488 50.3613 26.9963C50.158 27.1324 50.0564 27.3367 50.0564 27.609C50.0564 27.8814 50.2536 28.1537 50.6482 28.426C51.0428 28.687 51.7243 29.0388 52.6928 29.4813C53.9124 30.0147 54.7792 30.5537 55.2934 31.0983C55.8195 31.643 56.1303 32.2331 56.226 32.8685C56.3814 33.7877 56.208 34.616 55.7059 35.3536C55.2037 36.0912 54.3966 36.6075 53.2846 36.9025Z" fill="#003C82"/>
</svg>
